<?xml version="1.0" encoding="UTF-8"?>
<!--Generator: Apple Native CoreSVG 149-->
<!DOCTYPE svg
PUBLIC "-//W3C//DTD SVG 1.1//EN"
       "http://www.w3.org/Graphics/SVG/1.1/DTD/svg11.dtd">
<svg version="1.1" xmlns="http://www.w3.org/2000/svg" xmlns:xlink="http://www.w3.org/1999/xlink" width="3300" height="2200">
 <!--glyph: "", point size: 100.0, font version: "17.0d8e1", template writer version: "58"-->
 <style>.hierarchical-0:primary {fill:#212121}
.hierarchical-1:secondary {fill:#4D4D4D}

.SFSymbolsPreview212121 {fill:#212121;opacity:1.0}
.SFSymbolsPreview4D4D4D {fill:#4D4D4D;opacity:1.0}
</style>
 <g id="Notes">
  <rect height="2200" id="artboard" style="fill:white;opacity:1" width="3300" x="0" y="0"/>
  <line style="fill:none;stroke:black;opacity:1;stroke-width:0.5;" x1="263" x2="3036" y1="292" y2="292"/>
  <text style="stroke:none;fill:black;font-family:SF Pro,SF Pro Display,SF Pro Text,sans-serif;font-size:13;font-weight:bold;" transform="matrix(1 0 0 1 263 322)">Weight/Scale Variations</text>
  <text style="stroke:none;fill:black;font-family:SF Pro,SF Pro Display,SF Pro Text,sans-serif;font-size:13;text-anchor:middle;" transform="matrix(1 0 0 1 559.711 322)">Ultralight</text>
  <text style="stroke:none;fill:black;font-family:SF Pro,SF Pro Display,SF Pro Text,sans-serif;font-size:13;text-anchor:middle;" transform="matrix(1 0 0 1 856.422 322)">Thin</text>
  <text style="stroke:none;fill:black;font-family:SF Pro,SF Pro Display,SF Pro Text,sans-serif;font-size:13;text-anchor:middle;" transform="matrix(1 0 0 1 1153.13 322)">Light</text>
  <text style="stroke:none;fill:black;font-family:SF Pro,SF Pro Display,SF Pro Text,sans-serif;font-size:13;text-anchor:middle;" transform="matrix(1 0 0 1 1449.84 322)">Regular</text>
  <text style="stroke:none;fill:black;font-family:SF Pro,SF Pro Display,SF Pro Text,sans-serif;font-size:13;text-anchor:middle;" transform="matrix(1 0 0 1 1746.56 322)">Medium</text>
  <text style="stroke:none;fill:black;font-family:SF Pro,SF Pro Display,SF Pro Text,sans-serif;font-size:13;text-anchor:middle;" transform="matrix(1 0 0 1 2043.27 322)">Semibold</text>
  <text style="stroke:none;fill:black;font-family:SF Pro,SF Pro Display,SF Pro Text,sans-serif;font-size:13;text-anchor:middle;" transform="matrix(1 0 0 1 2339.98 322)">Bold</text>
  <text style="stroke:none;fill:black;font-family:SF Pro,SF Pro Display,SF Pro Text,sans-serif;font-size:13;text-anchor:middle;" transform="matrix(1 0 0 1 2636.69 322)">Heavy</text>
  <text style="stroke:none;fill:black;font-family:SF Pro,SF Pro Display,SF Pro Text,sans-serif;font-size:13;text-anchor:middle;" transform="matrix(1 0 0 1 2933.4 322)">Black</text>
  <line style="fill:none;stroke:black;opacity:1;stroke-width:0.5;" x1="263" x2="3036" y1="1903" y2="1903"/>
  <g transform="matrix(1 0 0 1 263 1933)">
   <path d="M9.24805 0.830078Q10.8691 0.830078 12.2949 0.214844Q13.7207-0.400391 14.8096-1.49414Q15.8984-2.58789 16.5186-4.01367Q17.1387-5.43945 17.1387-7.05078Q17.1387-8.66211 16.5186-10.0879Q15.8984-11.5137 14.8047-12.6074Q13.7109-13.7012 12.2852-14.3164Q10.8594-14.9316 9.23828-14.9316Q7.62695-14.9316 6.20117-14.3164Q4.77539-13.7012 3.69141-12.6074Q2.60742-11.5137 1.9873-10.0879Q1.36719-8.66211 1.36719-7.05078Q1.36719-5.43945 1.9873-4.01367Q2.60742-2.58789 3.69629-1.49414Q4.78516-0.400391 6.21094 0.214844Q7.63672 0.830078 9.24805 0.830078ZM9.24805-0.654297Q7.91992-0.654297 6.7627-1.14746Q5.60547-1.64062 4.73145-2.51953Q3.85742-3.39844 3.36426-4.56055Q2.87109-5.72266 2.87109-7.05078Q2.87109-8.37891 3.35938-9.54102Q3.84766-10.7031 4.72168-11.582Q5.5957-12.4609 6.75293-12.9541Q7.91016-13.4473 9.23828-13.4473Q10.5762-13.4473 11.7334-12.9541Q12.8906-12.4609 13.7695-11.582Q14.6484-10.7031 15.1465-9.54102Q15.6445-8.37891 15.6445-7.05078Q15.6445-5.72266 15.1514-4.56055Q14.6582-3.39844 13.7842-2.51953Q12.9102-1.64062 11.748-1.14746Q10.5859-0.654297 9.24805-0.654297ZM5.83984-7.04102Q5.83984-6.71875 6.04492-6.51855Q6.25-6.31836 6.5918-6.31836L8.50586-6.31836L8.50586-4.39453Q8.50586-4.0625 8.70605-3.85742Q8.90625-3.65234 9.22852-3.65234Q9.56055-3.65234 9.76562-3.85742Q9.9707-4.0625 9.9707-4.39453L9.9707-6.31836L11.8945-6.31836Q12.2266-6.31836 12.4316-6.51855Q12.6367-6.71875 12.6367-7.04102Q12.6367-7.37305 12.4316-7.57812Q12.2266-7.7832 11.8945-7.7832L9.9707-7.7832L9.9707-9.69727Q9.9707-10.0391 9.76562-10.2441Q9.56055-10.4492 9.22852-10.4492Q8.90625-10.4492 8.70605-10.2441Q8.50586-10.0391 8.50586-9.69727L8.50586-7.7832L6.5918-7.7832Q6.25-7.7832 6.04492-7.57812Q5.83984-7.37305 5.83984-7.04102Z"/>
  </g>
  <g transform="matrix(1 0 0 1 281.867 1933)">
   <path d="M11.709 2.91016Q13.75 2.91016 15.5518 2.12891Q17.3535 1.34766 18.7305-0.0292969Q20.1074-1.40625 20.8887-3.20801Q21.6699-5.00977 21.6699-7.05078Q21.6699-9.0918 20.8887-10.8936Q20.1074-12.6953 18.7305-14.0723Q17.3535-15.4492 15.5469-16.2305Q13.7402-17.0117 11.6992-17.0117Q9.6582-17.0117 7.85645-16.2305Q6.05469-15.4492 4.68262-14.0723Q3.31055-12.6953 2.5293-10.8936Q1.74805-9.0918 1.74805-7.05078Q1.74805-5.00977 2.5293-3.20801Q3.31055-1.40625 4.6875-0.0292969Q6.06445 1.34766 7.86621 2.12891Q9.66797 2.91016 11.709 2.91016ZM11.709 1.25Q9.98047 1.25 8.47656 0.605469Q6.97266-0.0390625 5.83496-1.17676Q4.69727-2.31445 4.05762-3.81836Q3.41797-5.32227 3.41797-7.05078Q3.41797-8.7793 4.05762-10.2832Q4.69727-11.7871 5.83008-12.9297Q6.96289-14.0723 8.4668-14.7119Q9.9707-15.3516 11.6992-15.3516Q13.4277-15.3516 14.9316-14.7119Q16.4355-14.0723 17.5781-12.9297Q18.7207-11.7871 19.3652-10.2832Q20.0098-8.7793 20.0098-7.05078Q20.0098-5.32227 19.3701-3.81836Q18.7305-2.31445 17.5928-1.17676Q16.4551-0.0390625 14.9463 0.605469Q13.4375 1.25 11.709 1.25ZM7.39258-7.04102Q7.39258-6.68945 7.62695-6.46484Q7.86133-6.24023 8.23242-6.24023L10.8789-6.24023L10.8789-3.57422Q10.8789-3.21289 11.1035-2.9834Q11.3281-2.75391 11.6797-2.75391Q12.0508-2.75391 12.2852-2.9834Q12.5195-3.21289 12.5195-3.57422L12.5195-6.24023L15.1758-6.24023Q15.5371-6.24023 15.7715-6.46484Q16.0059-6.68945 16.0059-7.04102Q16.0059-7.41211 15.7715-7.6416Q15.5371-7.87109 15.1758-7.87109L12.5195-7.87109L12.5195-10.5176Q12.5195-10.8984 12.2852-11.1279Q12.0508-11.3574 11.6797-11.3574Q11.3281-11.3574 11.1035-11.1279Q10.8789-10.8984 10.8789-10.5176L10.8789-7.87109L8.23242-7.87109Q7.85156-7.87109 7.62207-7.6416Q7.39258-7.41211 7.39258-7.04102Z"/>
  </g>
  <g transform="matrix(1 0 0 1 305.646 1933)">
   <path d="M14.9707 5.66406Q17.0605 5.66406 18.96 5.01465Q20.8594 4.36523 22.4512 3.19336Q24.043 2.02148 25.2197 0.429688Q26.3965-1.16211 27.0459-3.06641Q27.6953-4.9707 27.6953-7.05078Q27.6953-9.14062 27.0459-11.04Q26.3965-12.9395 25.2197-14.5312Q24.043-16.123 22.4512-17.2998Q20.8594-18.4766 18.9551-19.126Q17.0508-19.7754 14.9609-19.7754Q12.8711-19.7754 10.9717-19.126Q9.07227-18.4766 7.48535-17.2998Q5.89844-16.123 4.72168-14.5312Q3.54492-12.9395 2.90039-11.04Q2.25586-9.14062 2.25586-7.05078Q2.25586-4.9707 2.90527-3.06641Q3.55469-1.16211 4.72656 0.429688Q5.89844 2.02148 7.49023 3.19336Q9.08203 4.36523 10.9814 5.01465Q12.8809 5.66406 14.9707 5.66406ZM14.9707 3.84766Q13.1641 3.84766 11.5283 3.2959Q9.89258 2.74414 8.53516 1.74805Q7.17773 0.751953 6.17676-0.610352Q5.17578-1.97266 4.62891-3.6084Q4.08203-5.24414 4.08203-7.05078Q4.08203-8.86719 4.62891-10.5029Q5.17578-12.1387 6.17188-13.501Q7.16797-14.8633 8.52539-15.8594Q9.88281-16.8555 11.5186-17.4023Q13.1543-17.9492 14.9609-17.9492Q16.7773-17.9492 18.4131-17.4023Q20.0488-16.8555 21.4111-15.8594Q22.7734-14.8633 23.7695-13.501Q24.7656-12.1387 25.3174-10.5029Q25.8691-8.86719 25.8691-7.05078Q25.8789-5.24414 25.332-3.6084Q24.7852-1.97266 23.7842-0.610352Q22.7832 0.751953 21.4209 1.74805Q20.0586 2.74414 18.4229 3.2959Q16.7871 3.84766 14.9707 3.84766ZM9.45312-7.04102Q9.45312-6.66016 9.71191-6.41113Q9.9707-6.16211 10.3711-6.16211L14.0625-6.16211L14.0625-2.46094Q14.0625-2.06055 14.3115-1.80664Q14.5605-1.55273 14.9414-1.55273Q15.3516-1.55273 15.6055-1.80664Q15.8594-2.06055 15.8594-2.46094L15.8594-6.16211L19.5605-6.16211Q19.9609-6.16211 20.2148-6.41113Q20.4688-6.66016 20.4688-7.04102Q20.4688-7.45117 20.2148-7.70508Q19.9609-7.95898 19.5605-7.95898L15.8594-7.95898L15.8594-11.6504Q15.8594-12.0605 15.6055-12.3145Q15.3516-12.5684 14.9414-12.5684Q14.5605-12.5684 14.3115-12.3096Q14.0625-12.0508 14.0625-11.6504L14.0625-7.95898L10.3711-7.95898Q9.96094-7.95898 9.70703-7.70508Q9.45312-7.45117 9.45312-7.04102Z"/>
  </g>
  <text style="stroke:none;fill:black;font-family:SF Pro,SF Pro Display,SF Pro Text,sans-serif;font-size:13;font-weight:bold;" transform="matrix(1 0 0 1 263 1953)">Design Variations</text>
  <text style="stroke:none;fill:black;font-family:SF Pro,SF Pro Display,SF Pro Text,sans-serif;font-size:13;" transform="matrix(1 0 0 1 263 1971)">Symbols are supported in up to nine weights and three scales.</text>
  <text style="stroke:none;fill:black;font-family:SF Pro,SF Pro Display,SF Pro Text,sans-serif;font-size:13;" transform="matrix(1 0 0 1 263 1989)">For optimal layout with text and other symbols, vertically align</text>
  <text style="stroke:none;fill:black;font-family:SF Pro,SF Pro Display,SF Pro Text,sans-serif;font-size:13;" transform="matrix(1 0 0 1 263 2007)">symbols with the adjacent text.</text>
  <line style="fill:none;stroke:#00AEEF;stroke-width:0.5;opacity:1.0;" x1="776" x2="776" y1="1919" y2="1933"/>
  <g transform="matrix(1 0 0 1 776 1933)">
   <path d="M3.31055 0.15625Q3.70117 0.15625 3.91602-0.00976562Q4.13086-0.175781 4.26758-0.585938L5.52734-4.0332L11.2891-4.0332L12.5488-0.585938Q12.6855-0.175781 12.9004-0.00976562Q13.1152 0.15625 13.4961 0.15625Q13.8867 0.15625 14.1162-0.0585938Q14.3457-0.273438 14.3457-0.644531Q14.3457-0.869141 14.2383-1.17188L9.6582-13.3691Q9.48242-13.8184 9.17969-14.043Q8.87695-14.2676 8.4082-14.2676Q7.5-14.2676 7.17773-13.3789L2.59766-1.16211Q2.49023-0.859375 2.49023-0.634766Q2.49023-0.263672 2.70996-0.0537109Q2.92969 0.15625 3.31055 0.15625ZM6.00586-5.51758L8.37891-12.0898L8.42773-12.0898L10.8008-5.51758Z"/>
  </g>
  <line style="fill:none;stroke:#00AEEF;stroke-width:0.5;opacity:1.0;" x1="793.197" x2="793.197" y1="1919" y2="1933"/>
  <text style="stroke:none;fill:black;font-family:SF Pro,SF Pro Display,SF Pro Text,sans-serif;font-size:13;font-weight:bold;" transform="matrix(1 0 0 1 776 1953)">Margins</text>
  <text style="stroke:none;fill:black;font-family:SF Pro,SF Pro Display,SF Pro Text,sans-serif;font-size:13;" transform="matrix(1 0 0 1 776 1971)">Leading and trailing margins on the left and right side of each symbol</text>
  <text style="stroke:none;fill:black;font-family:SF Pro,SF Pro Display,SF Pro Text,sans-serif;font-size:13;" transform="matrix(1 0 0 1 776 1989)">can be adjusted by modifying the x-location of the margin guidelines.</text>
  <text style="stroke:none;fill:black;font-family:SF Pro,SF Pro Display,SF Pro Text,sans-serif;font-size:13;" transform="matrix(1 0 0 1 776 2007)">Modifications are automatically applied proportionally to all</text>
  <text style="stroke:none;fill:black;font-family:SF Pro,SF Pro Display,SF Pro Text,sans-serif;font-size:13;" transform="matrix(1 0 0 1 776 2025)">scales and weights.</text>
  <g transform="matrix(1 0 0 1 1289 1933)">
   <path d="M2.8418 1.86523L4.54102 3.57422Q5.18555 4.22852 5.90332 4.17969Q6.62109 4.13086 7.31445 3.35938L18.0078-8.42773L17.041-9.4043L6.42578 2.27539Q6.16211 2.57812 5.89355 2.61719Q5.625 2.65625 5.27344 2.30469L4.10156 1.14258Q3.75 0.791016 3.79395 0.522461Q3.83789 0.253906 4.14062-0.0195312L15.6152-10.8203L14.6387-11.7871L3.04688-0.898438Q2.30469-0.214844 2.25098 0.498047Q2.19727 1.21094 2.8418 1.86523ZM9.25781-16.3281Q8.94531-16.0254 8.90625-15.6348Q8.86719-15.2441 9.04297-14.9512Q9.21875-14.6777 9.55566-14.541Q9.89258-14.4043 10.3809-14.5215Q11.4746-14.7754 12.5977-14.7314Q13.7207-14.6875 14.7949-13.9844L14.209-12.5293Q13.9551-11.9043 14.0674-11.4404Q14.1797-10.9766 14.5801-10.5664L16.875-8.25195Q17.2363-7.88086 17.5781-7.82227Q17.9199-7.76367 18.3398-7.8418L19.4043-8.03711L20.0684-7.36328L20.0293-6.80664Q20-6.43555 20.1221-6.12305Q20.2441-5.81055 20.6055-5.44922L21.3672-4.70703Q21.7285-4.3457 22.1533-4.33105Q22.5781-4.31641 22.9297-4.66797L25.8398-7.58789Q26.1914-7.93945 26.1816-8.35449Q26.1719-8.76953 25.8105-9.13086L25.0391-9.89258Q24.6875-10.2539 24.3799-10.3857Q24.0723-10.5176 23.7109-10.4883L23.1348-10.4395L22.4902-11.0742L22.7344-12.1973Q22.832-12.6172 22.6953-12.9834Q22.5586-13.3496 22.1191-13.7891L19.9219-15.9766Q18.6719-17.2168 17.2607-17.8369Q15.8496-18.457 14.4189-18.4814Q12.9883-18.5059 11.665-17.959Q10.3418-17.4121 9.25781-16.3281ZM10.752-15.957Q11.6602-16.6211 12.7002-16.9043Q13.7402-17.1875 14.8047-17.085Q15.8691-16.9824 16.8701-16.5137Q17.8711-16.0449 18.7012-15.2051L21.1328-12.793Q21.3086-12.6172 21.3525-12.4512Q21.3965-12.2852 21.3379-12.0312L21.0156-10.5469L22.5195-9.0625L23.5059-9.12109Q23.6914-9.13086 23.7891-9.09668Q23.8867-9.0625 24.0332-8.91602L24.6094-8.33984L22.168-5.89844L21.5918-6.47461Q21.4453-6.62109 21.4062-6.71875Q21.3672-6.81641 21.377-7.01172L21.4453-7.98828L19.9512-9.47266L18.4277-9.21875Q18.1836-9.16992 18.042-9.2041Q17.9004-9.23828 17.7148-9.41406L15.7129-11.416Q15.5176-11.5918 15.4932-11.7529Q15.4688-11.9141 15.5859-12.1875L16.4648-14.2773Q15.293-15.3711 13.8281-15.791Q12.3633-16.2109 10.8398-15.7617Q10.7227-15.7324 10.6885-15.8057Q10.6543-15.8789 10.752-15.957Z"/>
  </g>
  <text style="stroke:none;fill:black;font-family:SF Pro,SF Pro Display,SF Pro Text,sans-serif;font-size:13;font-weight:bold;" transform="matrix(1 0 0 1 1289 1953)">Exporting</text>
  <text style="stroke:none;fill:black;font-family:SF Pro,SF Pro Display,SF Pro Text,sans-serif;font-size:13;" transform="matrix(1 0 0 1 1289 1971)">Symbols should be outlined when exporting to ensure the</text>
  <text style="stroke:none;fill:black;font-family:SF Pro,SF Pro Display,SF Pro Text,sans-serif;font-size:13;" transform="matrix(1 0 0 1 1289 1989)">design is preserved when submitting to Xcode.</text>
  <text id="template-version" style="stroke:none;fill:black;font-family:SF Pro,SF Pro Display,SF Pro Text,sans-serif;font-size:13;text-anchor:end;" transform="matrix(1 0 0 1 3036 1933)">Template v.3.0</text>
  <text style="stroke:none;fill:black;font-family:SF Pro,SF Pro Display,SF Pro Text,sans-serif;font-size:13;text-anchor:end;" transform="matrix(1 0 0 1 3036 1951)">Requires Xcode 13 or greater</text>
  <text id="descriptive-name" style="stroke:none;fill:black;font-family:SF Pro,SF Pro Display,SF Pro Text,sans-serif;font-size:13;text-anchor:end;" transform="matrix(1 0 0 1 3036 1969)">Generated from custom.person.fill</text>
  <text style="stroke:none;fill:black;font-family:SF Pro,SF Pro Display,SF Pro Text,sans-serif;font-size:13;text-anchor:end;" transform="matrix(1 0 0 1 3036 1987)">Typeset at 100 points</text>
  <text style="stroke:none;fill:black;font-family:SF Pro,SF Pro Display,SF Pro Text,sans-serif;font-size:13;" transform="matrix(1 0 0 1 263 726)">Small</text>
  <text style="stroke:none;fill:black;font-family:SF Pro,SF Pro Display,SF Pro Text,sans-serif;font-size:13;" transform="matrix(1 0 0 1 263 1156)">Medium</text>
  <text style="stroke:none;fill:black;font-family:SF Pro,SF Pro Display,SF Pro Text,sans-serif;font-size:13;" transform="matrix(1 0 0 1 263 1586)">Large</text>
 </g>
 <g id="Guides">
  <g id="H-reference" style="fill:#27AAE1;stroke:none;" transform="matrix(1 0 0 1 339 696)">
   <path d="M0.976562 0L3.66211 0L29.3457-67.1387L30.0293-67.1387L30.0293-70.459L28.125-70.459ZM11.6699-24.4629L46.9727-24.4629L46.2402-26.709L12.4512-26.709ZM55.127 0L57.7637 0L30.6152-70.459L29.4434-70.459L29.4434-67.1387Z"/>
  </g>
  <line id="Baseline-S" style="fill:none;stroke:#27AAE1;opacity:1;stroke-width:0.5;" x1="263" x2="3036" y1="696" y2="696"/>
  <line id="Capline-S" style="fill:none;stroke:#27AAE1;opacity:1;stroke-width:0.5;" x1="263" x2="3036" y1="625.541" y2="625.541"/>
  <g id="H-reference" style="fill:#27AAE1;stroke:none;" transform="matrix(1 0 0 1 339 1126)">
   <path d="M0.976562 0L3.66211 0L29.3457-67.1387L30.0293-67.1387L30.0293-70.459L28.125-70.459ZM11.6699-24.4629L46.9727-24.4629L46.2402-26.709L12.4512-26.709ZM55.127 0L57.7637 0L30.6152-70.459L29.4434-70.459L29.4434-67.1387Z"/>
  </g>
  <line id="Baseline-M" style="fill:none;stroke:#27AAE1;opacity:1;stroke-width:0.5;" x1="263" x2="3036" y1="1126" y2="1126"/>
  <line id="Capline-M" style="fill:none;stroke:#27AAE1;opacity:1;stroke-width:0.5;" x1="263" x2="3036" y1="1055.54" y2="1055.54"/>
  <g id="H-reference" style="fill:#27AAE1;stroke:none;" transform="matrix(1 0 0 1 339 1556)">
   <path d="M0.976562 0L3.66211 0L29.3457-67.1387L30.0293-67.1387L30.0293-70.459L28.125-70.459ZM11.6699-24.4629L46.9727-24.4629L46.2402-26.709L12.4512-26.709ZM55.127 0L57.7637 0L30.6152-70.459L29.4434-70.459L29.4434-67.1387Z"/>
  </g>
  <line id="Baseline-L" style="fill:none;stroke:#27AAE1;opacity:1;stroke-width:0.5;" x1="263" x2="3036" y1="1556" y2="1556"/>
  <line id="Capline-L" style="fill:none;stroke:#27AAE1;opacity:1;stroke-width:0.5;" x1="263" x2="3036" y1="1485.54" y2="1485.54"/>
  <line id="left-margin-Regular-M" style="fill:none;stroke:#00AEEF;stroke-width:0.5;opacity:1.0;" x1="1395.99" x2="1395.99" y1="1030.78" y2="1150.12"/>
  <line id="right-margin-Regular-M" style="fill:none;stroke:#00AEEF;stroke-width:0.5;opacity:1.0;" x1="1503.7" x2="1503.7" y1="1030.78" y2="1150.12"/>
 </g>
 <g id="Symbols">
  <g id="Black-L" transform="matrix(1 0 0 1 2862.94 1556)">
   <path class="hierarchical-0:primary SFSymbolsPreview212121" d="M29.6784 24.2701L111.233 24.2701Q117.454 24.2701 120.946 21.3986Q124.437 18.5271 124.437 13.4676Q124.437 7.47379 120.623 0.866498Q116.809-5.74085 109.718-11.5038Q102.628-17.2667 92.6633-20.8485Q82.6988-24.4304 70.4568-24.4304Q58.2148-24.4304 48.2595-20.8485Q38.3042-17.2667 31.2148-11.5038Q24.1254-5.74085 20.3106 0.866498Q16.4957 7.47379 16.4957 13.4676Q16.4957 18.5271 19.9776 21.3986Q23.4594 24.2701 29.6784 24.2701Z"/>
   <path class="hierarchical-1:secondary SFSymbolsPreview4D4D4D" d="M70.4594-35.2804Q77.7429-35.2804 83.6746-39.0953Q89.6064-42.91 93.1105-49.3768Q96.6147-55.8436 96.6147-63.7806Q96.6147-71.4178 93.0807-77.7725Q89.5467-84.127 83.6143-87.9491Q77.682-91.7713 70.4594-91.7713Q63.2563-91.7713 57.2941-87.9291Q51.3318-84.0869 47.8271-77.7213Q44.3224-71.3556 44.3237-63.7392Q44.382-55.8229 47.8569-49.3665Q51.3318-42.91 57.2643-39.0953Q63.1967-35.2804 70.4594-35.2804Z"/>
  </g>
  <g id="Heavy-L" transform="matrix(1 0 0 1 2566.47 1556)">
   <path class="hierarchical-0:primary SFSymbolsPreview212121" d="M29.0488 23.909L111.362 23.909Q117.288 23.909 120.619 21.1919Q123.951 18.4748 123.951 13.711Q123.951 7.69433 120.172 1.05971Q116.392-5.57498 109.345-11.3653Q102.298-17.1555 92.3758-20.7625Q82.4531-24.3696 70.2116-24.3696Q57.9701-24.3696 48.0564-20.7625Q38.1426-17.1555 31.1017-11.3653Q24.0608-5.57498 20.2783 1.05971Q16.4957 7.69433 16.4957 13.711Q16.4957 18.4748 19.8158 21.1919Q23.1358 23.909 29.0488 23.909Z"/>
   <path class="hierarchical-1:secondary SFSymbolsPreview4D4D4D" d="M70.2237-35.3161Q77.3926-35.3161 83.2733-39.0986Q89.1539-42.881 92.646-49.3084Q96.1381-55.7358 96.1381-63.6495Q96.1381-71.3038 92.6207-77.6032Q89.1033-83.9023 83.2196-87.6581Q77.336-91.4139 70.2237-91.4139Q63.1352-91.4139 57.2262-87.6314Q51.3171-83.8489 47.8221-77.5318Q44.3271-71.2145 44.3332-63.59Q44.3778-55.706 47.8474-49.2936Q51.3171-42.881 57.2009-39.0986Q63.0845-35.3161 70.2237-35.3161Z"/>
  </g>
  <g id="Bold-L" transform="matrix(1 0 0 1 2270.06 1556)">
   <path class="hierarchical-0:primary SFSymbolsPreview212121" d="M28.2552 23.4531L111.528 23.4531Q117.075 23.4531 120.207 20.9189Q123.338 18.3847 123.338 13.9803Q123.338 7.94104 119.602 1.28015Q115.866-5.3808 108.869-11.1973Q101.872-17.0138 92.0052-20.6476Q82.138-24.2814 69.9056-24.2814Q57.6733-24.2814 47.8104-20.6476Q37.9474-17.0138 30.9651-11.1973Q23.9827-5.3808 20.2392 1.28015Q16.4957 7.94104 16.4957 13.9803Q16.4957 18.3847 19.6161 20.9189Q22.7363 23.4531 28.2552 23.4531Z"/>
   <path class="hierarchical-1:secondary SFSymbolsPreview4D4D4D" d="M69.9341-35.3358Q76.9807-35.3358 82.7941-39.0793Q88.6075-42.8228 92.0746-49.1988Q95.5415-55.5749 95.5415-63.4567Q95.5415-71.1072 92.0528-77.3403Q88.5641-83.5732 82.7436-87.2606Q76.923-90.948 69.9341-90.948Q62.968-90.948 57.1257-87.2307Q51.2834-83.5135 47.8093-77.2549Q44.3353-70.9963 44.3495-63.3828Q44.3787-55.5379 47.831-49.1803Q51.2834-42.8228 57.104-39.0793Q62.9246-35.3358 69.9341-35.3358Z"/>
  </g>
  <g id="Semibold-L" transform="matrix(1 0 0 1 1973.56 1556)">
   <path class="hierarchical-0:primary SFSymbolsPreview212121" d="M27.7081 23.1389L111.642 23.1389Q116.929 23.1389 119.922 20.7308Q122.916 18.3226 122.916 14.166Q122.916 8.11112 119.209 1.43213Q115.502-5.24693 108.541-11.0816Q101.579-16.9162 91.7498-20.5684Q81.9208-24.2206 69.6947-24.2206Q57.4687-24.2206 47.6408-20.5684Q37.8129-16.9162 30.8709-11.0816Q23.9289-5.24693 20.2123 1.43213Q16.4957 8.11112 16.4957 14.166Q16.4957 18.3226 19.4784 20.7308Q22.4609 23.1389 27.7081 23.1389Z"/>
   <path class="hierarchical-1:secondary SFSymbolsPreview4D4D4D" d="M69.7345-35.3495Q76.6967-35.3495 82.4638-39.0661Q88.2308-42.7826 91.6806-49.1233Q95.1303-55.4639 95.1303-63.3238Q95.1303-70.9717 91.6614-77.1591Q88.1924-83.3464 82.4154-86.9865Q76.6383-90.6268 69.7345-90.6268Q62.8527-90.6268 57.0565-86.9545Q51.2602-83.2824 47.8005-77.0641Q44.341-70.8458 44.3608-63.2399Q44.3794-55.422 47.8198-49.1023Q51.2602-42.7826 57.0373-39.0661Q62.8143-35.3495 69.7345-35.3495Z"/>
  </g>
  <g id="Medium-L" transform="matrix(1 0 0 1 1677.01 1556)">
   <path class="hierarchical-0:primary SFSymbolsPreview212121" d="M27.2933 22.9006L111.728 22.9006Q116.817 22.9006 119.706 20.5881Q122.595 18.2755 122.595 14.3068Q122.595 8.24008 118.911 1.54736Q115.227-5.14543 108.292-10.9938Q101.356-16.8421 91.5561-20.5083Q81.756-24.1745 69.5348-24.1745Q57.3135-24.1745 47.5122-20.5083Q37.7109-16.8421 30.7995-10.9938Q23.8881-5.14543 20.1919 1.54736Q16.4957 8.24008 16.4957 14.3068Q16.4957 18.2755 19.374 20.5881Q22.2521 22.9006 27.2933 22.9006Z"/>
   <path class="hierarchical-1:secondary SFSymbolsPreview4D4D4D" d="M69.5831-35.3598Q76.4813-35.3598 82.2133-39.056Q87.9452-42.7521 91.3819-49.066Q94.8185-55.3798 94.8185-63.2231Q94.8185-70.869 91.3645-77.0217Q87.9106-83.1743 82.1666-86.7787Q76.4225-90.3832 69.5831-90.3832Q62.7653-90.3832 57.004-86.7451Q51.2425-83.1071 47.7939-76.9194Q44.3452-70.7317 44.3694-63.1316Q44.3799-55.3341 47.8112-49.0431Q51.2425-42.7521 56.9866-39.056Q62.7307-35.3598 69.5831-35.3598Z"/>
  </g>
  <g id="Regular-L" transform="matrix(1 0 0 1 1380.51 1556)">
   <path class="hierarchical-0:primary SFSymbolsPreview212121" d="M26.7522 22.5898L111.841 22.5898Q116.673 22.5898 119.425 20.402Q122.178 18.2141 122.178 14.4905Q122.178 8.40829 118.523 1.69766Q114.868-5.01303 107.967-10.8793Q101.066-16.7455 91.3035-20.4299Q81.5412-24.1144 69.3262-24.1144Q57.1111-24.1144 47.3445-20.4299Q37.5778-16.7455 30.7063-10.8793Q23.8349-5.01303 20.1653 1.69766Q16.4957 8.40829 16.4957 14.4905Q16.4957 18.2141 19.2378 20.402Q21.9798 22.5898 26.7522 22.5898Z"/>
   <path class="hierarchical-1:secondary SFSymbolsPreview4D4D4D" d="M69.3857-35.3733Q76.2004-35.3733 81.8865-39.0428Q87.5727-42.7123 90.9923-48.9912Q94.4118-55.2701 94.4118-63.0917Q94.4118-70.7349 90.9774-76.8425Q87.5429-82.95 81.842-86.5077Q76.1409-90.0655 69.3857-90.0655Q62.6514-90.0655 56.9355-86.4719Q51.2195-82.8784 47.7851-76.7307Q44.3508-70.5829 44.3805-62.9904Q44.3805-55.2194 47.8-48.9659Q51.2195-42.7123 56.9206-39.0428Q62.6216-35.3733 69.3857-35.3733Z"/>
  </g>
  <g id="Light-L" transform="matrix(1 0 0 1 1084.04 1556)">
   <path class="hierarchical-0:primary SFSymbolsPreview212121" d="M26.116 22.2205L111.984 22.2205Q116.488 22.2205 119.086 20.1044Q121.685 17.9883 121.685 14.4699Q121.685 8.40829 118.061 1.72843Q114.437-4.95145 107.546-10.7869Q100.655-16.6224 90.9546-20.2965Q81.2539-23.9708 69.1004-23.9708Q56.947-23.9708 47.2111-20.2965Q37.4753-16.6224 30.6345-10.7869Q23.7939-4.95145 20.1448 1.72843Q16.4957 8.40829 16.4957 14.4699Q16.4957 17.9883 19.1044 20.1044Q21.713 22.2205 26.116 22.2205Z"/>
   <path class="hierarchical-1:secondary SFSymbolsPreview4D4D4D" d="M69.201-35.2296Q76.0568-35.2296 81.6711-38.8786Q87.2853-42.5277 90.6229-48.7552Q93.9603-54.9827 93.9603-62.7633Q93.9603-70.2424 90.5977-76.3192Q87.2351-82.3958 81.5957-85.9946Q75.9562-89.5935 69.201-89.5935Q62.4256-89.5935 56.761-85.9896Q51.0964-82.3859 47.7338-76.269Q44.3713-70.1519 44.4216-62.7031Q44.4216-54.9526 47.7589-48.7401Q51.0964-42.5277 56.7359-38.8786Q62.3753-35.2296 69.201-35.2296Z"/>
  </g>
  <g id="Thin-L" transform="matrix(1 0 0 1 787.658 1556)">
   <path class="hierarchical-0:primary SFSymbolsPreview212121" d="M25.2747 21.7319L112.174 21.7319Q116.244 21.7319 118.639 19.7108Q121.034 17.6898 121.034 14.4428Q121.034 8.40829 117.45 1.76912Q113.867-4.87002 106.99-10.6647Q100.112-16.4596 90.4932-20.1201Q80.8739-23.7808 68.8019-23.7808Q56.7299-23.7808 47.0347-20.1201Q37.3396-16.4596 30.5395-10.6647Q23.7396-4.87002 20.1177 1.76912Q16.4957 8.40829 16.4957 14.4428Q16.4957 17.6898 18.928 19.7108Q21.3601 21.7319 25.2747 21.7319Z"/>
   <path class="hierarchical-1:secondary SFSymbolsPreview4D4D4D" d="M68.9567-35.0396Q75.8668-35.0396 81.3861-38.6615Q86.9054-42.2834 90.1343-48.443Q93.3632-54.6028 93.3632-62.3291Q93.3632-69.591 90.0955-75.627Q86.828-81.663 81.27-85.3161Q75.7119-88.9692 68.9567-88.9692Q62.1271-88.9692 56.5303-85.3518Q50.9336-81.7345 47.666-75.6583Q44.3985-69.5819 44.4758-62.3231Q44.4758-54.5997 47.7046-48.4415Q50.9336-42.2834 56.4916-38.6615Q62.0496-35.0396 68.9567-35.0396Z"/>
  </g>
  <g id="Ultralight-L" transform="matrix(1 0 0 1 491.113 1556)">
   <path class="hierarchical-0:primary SFSymbolsPreview212121" d="M24.8437 21.4817L112.272 21.4817Q116.118 21.4817 118.409 19.5093Q120.7 17.5369 120.7 14.4289Q120.7 8.40829 117.138 1.78996Q113.575-4.82831 106.705-10.6022Q99.8343-16.3762 90.2568-20.0297Q80.6792-23.6834 68.6489-23.6834Q56.6186-23.6834 46.9443-20.0297Q37.2701-16.3762 30.4909-10.6022Q23.7118-4.82831 20.1038 1.78996Q16.4957 8.40829 16.4957 14.4289Q16.4957 17.5369 18.8376 19.5093Q21.1794 21.4817 24.8437 21.4817Z"/>
   <path class="hierarchical-1:secondary SFSymbolsPreview4D4D4D" d="M68.8316-34.9423Q75.7695-34.9423 81.2401-38.5502Q86.7107-42.1583 89.8841-48.2831Q93.0573-54.4081 93.0573-62.1067Q93.0573-69.2573 89.8383-75.2725Q86.6195-81.2876 81.1032-84.9685Q75.5868-88.6494 68.8316-88.6494Q61.9741-88.6494 56.4121-85.0251Q50.8502-81.4008 47.6312-75.3455Q44.4124-69.29 44.5036-62.1284Q44.5036-54.419 47.6768-48.2886Q50.8502-42.1583 56.3665-38.5502Q61.8827-34.9423 68.8316-34.9423Z"/>
  </g>
  <g id="Black-M" transform="matrix(1 0 0 1 2878.64 1126)">
   <path class="hierarchical-0:primary SFSymbolsPreview212121" d="M23.4481 11.1276L86.0846 11.1276Q91.1151 11.1276 93.9365 8.77987Q96.7579 6.43216 96.7579 2.28615Q96.7579-2.33512 93.7772-7.42641Q90.7966-12.5177 85.267-16.9548Q79.7373-21.392 71.9899-24.1439Q64.2425-26.8959 54.766-26.8959Q45.2896-26.8959 37.5452-24.1439Q29.8008-21.392 24.2709-16.9548Q18.7409-12.5177 15.7605-7.42641Q12.7799-2.33512 12.7799 2.28615Q12.7799 6.43216 15.5984 8.77987Q18.417 11.1276 23.4481 11.1276Z"/>
   <path class="hierarchical-1:secondary SFSymbolsPreview4D4D4D" d="M54.7654-35.2189Q60.5122-35.2189 65.142-38.1995Q69.7717-41.1799 72.4858-46.217Q75.2-51.254 75.2-57.4176Q75.2-63.2974 72.4574-68.2641Q69.715-73.2306 65.0854-76.2543Q60.4558-79.278 54.7654-79.278Q49.0809-79.278 44.4229-76.2487Q39.7649-73.2193 37.051-68.2502Q34.3371-63.2809 34.3368-57.4066Q34.3939-51.2485 37.0794-46.2142Q39.7649-41.1799 44.3945-38.1995Q49.0241-35.2189 54.7654-35.2189Z"/>
  </g>
  <g id="Heavy-M" transform="matrix(1 0 0 1 2582.14 1126)">
   <path class="hierarchical-0:primary SFSymbolsPreview212121" d="M22.8912 10.8086L86.1981 10.8086Q90.9691 10.8086 93.6486 8.60526Q96.3281 6.40192 96.3281 2.52594Q96.3281-2.11953 93.3785-7.24037Q90.429-12.3613 84.9411-16.8279Q79.4533-21.2946 71.7411-24.0721Q64.0288-26.8497 54.5471-26.8497Q45.0654-26.8497 37.3589-24.0721Q29.6523-21.2946 24.1669-16.8279Q18.6815-12.3613 15.7308-7.24037Q12.7799-2.11953 12.7799 2.52594Q12.7799 6.40192 15.4526 8.60526Q18.1252 10.8086 22.8912 10.8086Z"/>
   <path class="hierarchical-1:secondary SFSymbolsPreview4D4D4D" d="M54.552-35.267Q60.1831-35.267 64.7695-38.2179Q69.356-41.1686 72.0658-46.1719Q74.7756-51.1751 74.7756-57.3197Q74.7756-63.2315 72.0427-68.1468Q69.3099-73.0621 64.7223-76.0172Q60.1346-78.9723 54.552-78.9723Q48.9832-78.9723 44.3726-76.0022Q39.7619-73.0321 37.0509-68.1075Q34.3399-63.1827 34.3423-57.2872Q34.3859-51.1589 37.0739-46.1637Q39.7619-41.1686 44.3496-38.2179Q48.9372-35.267 54.552-35.267Z"/>
  </g>
  <g id="Bold-M" transform="matrix(1 0 0 1 2285.67 1126)">
   <path class="hierarchical-0:primary SFSymbolsPreview212121" d="M22.2683 10.4518L86.3252 10.4518Q90.8058 10.4518 93.3265 8.40993Q95.8473 6.36808 95.8473 2.79419Q95.8473-1.87835 92.9325-7.03226Q90.0177-12.1862 84.5766-16.686Q79.1355-21.1857 71.4627-23.9918Q63.7898-26.798 54.3023-26.798Q44.8148-26.798 37.1505-23.9918Q29.4862-21.1857 24.0506-16.686Q18.6151-12.1862 15.6975-7.03226Q12.7799-1.87835 12.7799 2.79419Q12.7799 6.36808 15.2894 8.40993Q17.7988 10.4518 22.2683 10.4518Z"/>
   <path class="hierarchical-1:secondary SFSymbolsPreview4D4D4D" d="M54.3133-35.3209Q59.8149-35.3209 64.3529-38.2385Q68.8908-41.156 71.5959-46.1214Q74.301-51.0868 74.301-57.2101Q74.301-63.1576 71.5789-68.0156Q68.8568-72.8735 64.3161-75.7518Q59.7753-78.6302 54.3133-78.6302Q48.8741-78.6302 44.3163-75.7264Q39.7585-72.8226 37.0507-67.9478Q34.3429-63.0729 34.3484-57.1537Q34.377-51.0586 37.0677-46.1073Q39.7585-41.156 44.2993-38.2385Q48.84-35.3209 54.3133-35.3209Z"/>
  </g>
  <g id="Semibold-M" transform="matrix(1 0 0 1 1989.12 1126)">
   <path class="hierarchical-0:primary SFSymbolsPreview212121" d="M21.8389 10.2058L86.4128 10.2058Q90.6932 10.2058 93.1045 8.27527Q95.5159 6.34476 95.5159 2.97911Q95.5159-1.71209 92.625-6.8888Q89.7341-12.0656 84.3253-16.5881Q78.9164-21.1106 71.2708-23.9365Q63.625-26.7624 54.1335-26.7624Q44.6419-26.7624 37.0068-23.9365Q29.3717-21.1106 23.9705-16.5881Q18.5693-12.0656 15.6746-6.8888Q12.7799-1.71209 12.7799 2.97911Q12.7799 6.34476 15.1769 8.27527Q17.5738 10.2058 21.8389 10.2058Z"/>
   <path class="hierarchical-1:secondary SFSymbolsPreview4D4D4D" d="M54.1488-35.358Q59.5611-35.358 64.0656-38.2527Q68.5702-41.1473 71.272-46.0867Q73.9738-51.0259 73.9738-57.1346Q73.9738-63.1068 71.2591-67.9252Q68.5444-72.7435 64.036-75.5689Q59.5276-78.3944 54.1488-78.3944Q48.7988-78.3944 44.2775-75.5363Q39.7562-72.6782 37.0506-67.8377Q34.3451-62.9972 34.3527-57.0617Q34.3708-50.9894 37.0635-46.0684Q39.7562-41.1473 44.2646-38.2527Q48.773-35.358 54.1488-35.358Z"/>
  </g>
  <g id="Medium-M" transform="matrix(1 0 0 1 1692.53 1126)">
   <path class="hierarchical-0:primary SFSymbolsPreview212121" d="M21.5133 10.0193L86.4792 10.0193Q90.6078 10.0193 92.9362 8.17316Q95.2645 6.32708 95.2645 3.11933Q95.2645-1.58602 92.3918-6.78001Q89.5191-11.9741 84.1347-16.5139Q78.7503-21.0537 71.1253-23.8945Q63.5001-26.7354 54.0055-26.7354Q44.5109-26.7354 36.8979-23.8945Q29.2849-21.0537 23.9097-16.5139Q18.5346-11.9741 15.6573-6.78001Q12.7799-1.58602 12.7799 3.11933Q12.7799 6.32708 15.0916 8.17316Q17.4032 10.0193 21.5133 10.0193Z"/>
   <path class="hierarchical-1:secondary SFSymbolsPreview4D4D4D" d="M54.024-35.3862Q59.3686-35.3862 63.8478-38.2635Q68.3271-41.1407 71.0264-46.0603Q73.7256-50.9798 73.7256-57.0774Q73.7256-63.0682 71.0166-67.8566Q68.3075-72.645 63.8237-75.4302Q59.3398-78.2156 54.024-78.2156Q48.7417-78.2156 44.2481-75.3921Q39.7544-72.5687 37.0505-67.7543Q34.3467-62.9398 34.3559-56.9919Q34.3662-50.937 37.0603-46.0389Q39.7544-41.1407 44.2383-38.2635Q48.7222-35.3862 54.024-35.3862Z"/>
  </g>
  <g id="Regular-M" transform="matrix(1 0 0 1 1395.99 1126)">
   <path class="hierarchical-0:primary SFSymbolsPreview212121" d="M21.0886 9.77596L86.5658 9.77596Q90.4964 9.77596 92.7166 8.03998Q94.9367 6.30401 94.9367 3.30222Q94.9367-1.42159 92.0877-6.63812Q89.2387-11.8547 83.8862-16.4171Q78.5337-20.9795 70.9354-23.8398Q63.3371-26.7001 53.8385-26.7001Q44.3399-26.7001 36.7558-23.8398Q29.1716-20.9795 23.8304-16.4171Q18.4893-11.8547 15.6346-6.63812Q12.7799-1.42159 12.7799 3.30222Q12.7799 6.30401 14.9804 8.03998Q17.1807 9.77596 21.0886 9.77596Z"/>
   <path class="hierarchical-1:secondary SFSymbolsPreview4D4D4D" d="M53.8612-35.4229Q59.1175-35.4229 63.5637-38.2775Q68.0099-41.1321 70.706-46.0259Q73.402-50.9196 73.402-57.0027Q73.402-63.0178 70.7003-67.7672Q67.9986-72.5164 63.5467-75.2493Q59.0948-77.9824 53.8612-77.9824Q48.6673-77.9824 44.2097-75.2041Q39.7521-72.4259 37.0504-67.6454Q34.3488-62.8649 34.3601-56.9008Q34.3601-50.8687 37.0561-46.0004Q39.7521-41.1321 44.204-38.2775Q48.6559-35.4229 53.8612-35.4229Z"/>
  </g>
  <g id="Light-M" transform="matrix(1 0 0 1 1099.5 1126)">
   <path class="hierarchical-0:primary SFSymbolsPreview212121" d="M20.5182 9.44478L86.6946 9.44478Q90.3308 9.44478 92.413 7.7732Q94.4952 6.10162 94.4952 3.28383Q94.4952-1.42159 91.6737-6.61054Q88.8524-11.7995 83.5091-16.3343Q78.1657-20.8691 70.6227-23.7202Q63.0795-26.5714 53.6361-26.5714Q44.1928-26.5714 36.6362-23.7202Q29.0796-20.8691 23.766-16.3343Q18.4525-11.7995 15.6162-6.61054Q12.7799-1.42159 12.7799 3.28383Q12.7799 6.10162 14.8608 7.7732Q16.9415 9.44478 20.5182 9.44478Z"/>
   <path class="hierarchical-1:secondary SFSymbolsPreview4D4D4D" d="M53.6956-35.2941Q58.9887-35.2941 63.3705-38.1303Q67.7523-40.9666 70.3749-45.8143Q72.9973-50.662 72.9973-56.7083Q72.9973-62.5763 70.3599-67.298Q67.7226-72.0196 63.326-74.7894Q58.9292-77.5592 53.6956-77.5592Q48.4649-77.5592 44.0533-74.7717Q39.6417-71.9843 37.0044-67.2315Q34.3671-62.4786 34.3969-56.6433Q34.3969-50.6295 37.0193-45.798Q39.6417-40.9666 44.0384-38.1303Q48.4351-35.2941 53.6956-35.2941Z"/>
  </g>
  <g id="Thin-M" transform="matrix(1 0 0 1 803.077 1126)">
   <path class="hierarchical-0:primary SFSymbolsPreview212121" d="M19.7639 9.00676L86.8649 9.00676Q90.1118 9.00676 92.0114 7.42035Q93.9112 5.83395 93.9112 3.25949Q93.9112-1.42159 91.1262-6.57406Q88.3414-11.7265 83.0102-16.2248Q77.679-20.7231 70.209-23.562Q62.7388-26.401 53.3685-26.401Q43.9981-26.401 36.478-23.562Q28.958-20.7231 23.6809-16.2248Q18.4039-11.7265 15.5919-6.57406Q12.7799-1.42159 12.7799 3.25949Q12.7799 5.83395 14.7026 7.42035Q16.6251 9.00676 19.7639 9.00676Z"/>
   <path class="hierarchical-1:secondary SFSymbolsPreview4D4D4D" d="M53.4767-35.1237Q58.8184-35.1237 63.115-37.9356Q67.4117-40.7476 69.9368-45.5344Q72.4619-50.3213 72.4619-56.319Q72.4619-61.9922 69.9097-66.6774Q67.3576-71.3626 63.034-74.181Q58.7102-76.9995 53.4767-76.9995Q48.1972-76.9995 43.8464-74.1998Q39.4957-71.4003 36.9435-66.684Q34.3915-61.9675 34.4455-56.3026Q34.4455-50.3131 36.9706-45.5303Q39.4957-40.7476 43.8194-37.9356Q48.1431-35.1237 53.4767-35.1237Z"/>
  </g>
  <g id="Ultralight-M" transform="matrix(1 0 0 1 506.515 1126)">
   <path class="hierarchical-0:primary SFSymbolsPreview212121" d="M19.3775 8.78241L86.9522 8.78241Q89.9996 8.78241 91.8058 7.23962Q93.6121 5.69684 93.6121 3.24703Q93.6121-1.42159 90.8458-6.55537Q88.0797-11.6891 82.7548-16.1687Q77.4297-20.6484 69.9971-23.481Q62.5643-26.3138 53.2314-26.3138Q43.8984-26.3138 36.397-23.481Q28.8957-20.6484 23.6372-16.1687Q18.3789-11.6891 15.5794-6.55537Q12.7799-1.42159 12.7799 3.24703Q12.7799 5.69684 14.6216 7.23962Q16.4631 8.78241 19.3775 8.78241Z"/>
   <path class="hierarchical-1:secondary SFSymbolsPreview4D4D4D" d="M53.3645-35.0365Q58.7312-35.0365 62.9842-37.8359Q67.2372-40.6354 69.7125-45.391Q72.1877-50.1468 72.1877-56.1196Q72.1877-61.6931 69.6791-66.3596Q67.1707-71.026 62.8844-73.8694Q58.598-76.7128 53.3645-76.7128Q48.0601-76.7128 43.7405-73.9069Q39.421-71.1012 36.9124-66.4035Q34.4039-61.7058 34.4704-56.1281Q34.4704-50.1511 36.9456-45.3932Q39.421-40.6354 43.7072-37.8359Q47.9935-35.0365 53.3645-35.0365Z"/>
  </g>
  <g id="Black-S" transform="matrix(1 0 0 1 2890.43 696)">
   <path class="hierarchical-0:primary SFSymbolsPreview212121" d="M18.5117 1.17773L67.4375 1.17773Q71.4414 1.17773 73.6875-0.702148Q75.9336-2.58203 75.9336-5.90234Q75.9336-9.51562 73.5898-13.4951Q71.2461-17.4746 66.9004-20.9414Q62.5547-24.4082 56.4756-26.5566Q50.3965-28.7051 42.9746-28.7051Q35.5527-28.7051 29.4736-26.5566Q23.3945-24.4082 19.0488-20.9414Q14.7031-17.4746 12.3594-13.4951Q10.0156-9.51562 10.0156-5.90234Q10.0156-2.58203 12.2617-0.702148Q14.5078 1.17773 18.5117 1.17773Z"/>
   <path class="hierarchical-1:secondary SFSymbolsPreview4D4D4D" d="M42.9746-35.1992Q47.5156-35.1992 51.1533-37.543Q54.791-39.8867 56.915-43.8418Q59.0391-47.7969 59.0391-52.6309Q59.0391-57.2207 56.8906-61.127Q54.7422-65.0332 51.1045-67.4258Q47.4668-69.8184 42.9746-69.8184Q38.4824-69.8184 34.8203-67.4258Q31.1582-65.0332 29.0342-61.127Q26.9102-57.2207 26.9102-52.6309Q26.959-47.7969 29.0586-43.8418Q31.1582-39.8867 34.7959-37.543Q38.4336-35.1992 42.9746-35.1992Z"/>
  </g>
  <g id="Heavy-S" transform="matrix(1 0 0 1 2593.87 696)">
   <path class="hierarchical-0:primary SFSymbolsPreview212121" d="M18.1083 0.947245L67.5182 0.947245Q71.3377 0.947245 73.4801-0.817393Q75.6224-2.58203 75.6224-5.6949Q75.6224-9.33123 73.3017-13.3395Q70.981-17.3478 66.6699-20.8435Q62.3588-24.339 56.3027-26.5105Q50.2467-28.682 42.8133-28.682Q35.3798-28.682 29.3296-26.5105Q23.2793-24.339 18.9681-20.8435Q14.657-17.3478 12.3363-13.3395Q10.0156-9.33123 10.0156-5.6949Q10.0156-2.58203 12.1522-0.817393Q14.2888 0.947245 18.1083 0.947245Z"/>
   <path class="hierarchical-1:secondary SFSymbolsPreview4D4D4D" d="M42.8133-35.2568Q47.2505-35.2568 50.8594-37.5776Q54.4683-39.8982 56.5981-43.8303Q58.7279-47.7623 58.7279-52.5848Q58.7279-57.2207 56.5795-61.0867Q54.431-64.9525 50.8221-67.2817Q47.2133-69.611 42.8133-69.611Q38.4248-69.611 34.7973-67.2702Q31.1697-64.9295 29.04-61.0578Q26.9102-57.1861 26.9102-52.5617Q26.9475-47.7508 29.0586-43.8245Q31.1697-39.8982 34.7786-37.5776Q38.3875-35.2568 42.8133-35.2568Z"/>
  </g>
  <g id="Bold-S" transform="matrix(1 0 0 1 2297.34 696)">
   <path class="hierarchical-0:primary SFSymbolsPreview212121" d="M17.6572 0.689453L67.6084 0.689453Q71.2217 0.689453 73.2481-0.946289Q75.2744-2.58203 75.2744-5.46289Q75.2744-9.125 72.9795-13.1655Q70.6846-17.206 66.4121-20.7339Q62.1397-24.2617 56.1094-26.459Q50.0791-28.6562 42.6328-28.6562Q35.1865-28.6562 29.1685-26.459Q23.1504-24.2617 18.8779-20.7339Q14.6055-17.206 12.3106-13.1655Q10.0156-9.125 10.0156-5.46289Q10.0156-2.58203 12.0298-0.946289Q14.044 0.689453 17.6572 0.689453Z"/>
   <path class="hierarchical-1:secondary SFSymbolsPreview4D4D4D" d="M42.6328-35.3213Q46.9541-35.3213 50.5308-37.6163Q54.1074-39.9111 56.2437-43.8174Q58.3799-47.7236 58.3799-52.5332Q58.3799-57.2207 56.2315-61.0416Q54.083-64.8623 50.5064-67.1206Q46.9297-69.379 42.6328-69.379Q38.3604-69.379 34.7715-67.0962Q31.1826-64.8135 29.0464-60.9805Q26.9102-57.1474 26.9102-52.4844Q26.9346-47.6992 29.0586-43.8052Q31.1826-39.9111 34.7593-37.6163Q38.336-35.3213 42.6328-35.3213Z"/>
  </g>
  <g id="Semibold-S" transform="matrix(1 0 0 1 2000.74 696)">
   <path class="hierarchical-0:primary SFSymbolsPreview212121" d="M17.3462 0.511719L67.6706 0.511719Q71.1417 0.511719 73.0881-1.03516Q75.0345-2.58203 75.0345-5.30293Q75.0345-8.98281 72.7573-13.0455Q70.4801-17.1083 66.2344-20.6584Q61.9886-24.2084 55.9761-26.4234Q49.9636-28.6385 42.5084-28.6385Q35.0532-28.6385 29.0574-26.4234Q23.0615-24.2084 18.8157-20.6584Q14.5699-17.1083 12.2928-13.0455Q10.0156-8.98281 10.0156-5.30293Q10.0156-2.58203 11.9454-1.03516Q13.8751 0.511719 17.3462 0.511719Z"/>
   <path class="hierarchical-1:secondary SFSymbolsPreview4D4D4D" d="M42.5084-35.3657Q46.7497-35.3657 50.3041-37.6429Q53.8586-39.92 55.9993-43.8085Q58.14-47.697 58.14-52.4976Q58.14-57.2207 55.9915-61.0104Q53.8431-64.8001 50.2886-67.0095Q46.7342-69.219 42.5084-69.219Q38.3159-69.219 34.7537-66.9762Q31.1915-64.7335 29.0508-60.9272Q26.9102-57.1208 26.9102-52.4311Q26.9257-47.6637 29.0586-43.7919Q31.1915-39.92 34.746-37.6429Q38.3004-35.3657 42.5084-35.3657Z"/>
  </g>
  <g id="Medium-S" transform="matrix(1 0 0 1 1704.12 696)">
   <path class="hierarchical-0:primary SFSymbolsPreview212121" d="M17.1103 0.376953L67.7178 0.376953Q71.0811 0.376953 72.9668-1.10254Q74.8525-2.58203 74.8525-5.18164Q74.8525-8.875 72.5888-12.9546Q70.3252-17.0342 66.0996-20.6011Q61.874-24.1679 55.875-26.3965Q49.876-28.625 42.414-28.625Q34.9521-28.625 28.9732-26.3965Q22.9941-24.1679 18.7685-20.6011Q14.543-17.0342 12.2793-12.9546Q10.0156-8.875 10.0156-5.18164Q10.0156-2.58203 11.8814-1.10254Q13.7471 0.376953 17.1103 0.376953Z"/>
   <path class="hierarchical-1:secondary SFSymbolsPreview4D4D4D" d="M42.414-35.3994Q46.5947-35.3994 50.1323-37.6631Q53.6699-39.9267 55.814-43.8018Q57.958-47.6768 57.958-52.4707Q57.958-57.2207 55.8096-60.9869Q53.6611-64.7529 50.1235-66.9253Q46.586-69.0977 42.414-69.0977Q38.2822-69.0977 34.7403-66.8853Q31.1982-64.6729 29.0542-60.8867Q26.9102-57.1006 26.9102-52.3906Q26.919-47.6368 29.0586-43.7818Q31.1982-39.9267 34.7359-37.6631Q38.2735-35.3994 42.414-35.3994Z"/>
  </g>
  <g id="Regular-S" transform="matrix(1 0 0 1 1407.53 696)">
   <path class="hierarchical-0:primary SFSymbolsPreview212121" d="M16.8027 0.201172L67.7793 0.201172Q71.002 0.201172 72.8086-1.19043Q74.6152-2.58203 74.6152-5.02344Q74.6152-8.73438 72.3691-12.8359Q70.123-16.9375 65.9238-20.5264Q61.7246-24.1152 55.7432-26.3613Q49.7617-28.6074 42.291-28.6074Q34.8203-28.6074 28.8633-26.3613Q22.9062-24.1152 18.707-20.5264Q14.5078-16.9375 12.2617-12.8359Q10.0156-8.73438 10.0156-5.02344Q10.0156-2.58203 11.7979-1.19043Q13.5801 0.201172 16.8027 0.201172Z"/>
   <path class="hierarchical-1:secondary SFSymbolsPreview4D4D4D" d="M42.291-35.4434Q46.3926-35.4434 49.9082-37.6895Q53.4238-39.9355 55.5723-43.793Q57.7207-47.6504 57.7207-52.4355Q57.7207-57.2207 55.5723-60.9561Q53.4238-64.6914 49.9082-66.8154Q46.3926-68.9395 42.291-68.9395Q38.2383-68.9395 34.7227-66.7666Q31.207-64.5938 29.0586-60.834Q26.9102-57.0742 26.9102-52.3379Q26.9102-47.6016 29.0586-43.7686Q31.207-39.9355 34.7227-37.6895Q38.2383-35.4434 42.291-35.4434Z"/>
  </g>
  <g id="Light-S" transform="matrix(1 0 0 1 1111.01 696)">
   <path class="hierarchical-0:primary SFSymbolsPreview212121" d="M16.2982-0.0917967L67.8932-0.0917967Q70.8555-0.0917967 72.54-1.42643Q74.2246-2.76107 74.2246-5.03972Q74.2246-8.73438 72.0029-12.8115Q69.7812-16.8887 65.5902-20.4531Q61.3991-24.0176 55.4665-26.2555Q49.5338-28.4935 42.112-28.4935Q34.6901-28.4935 28.7575-26.2555Q22.8248-24.0176 18.65-20.4531Q14.4753-16.8887 12.2454-12.8115Q10.0156-8.73438 10.0156-5.03972Q10.0156-2.76107 11.6921-1.42643Q13.3685-0.0917967 16.2982-0.0917967Z"/>
   <path class="hierarchical-1:secondary SFSymbolsPreview4D4D4D" d="M42.1445-35.3295Q46.2787-35.3295 49.7373-37.5593Q53.1959-39.789 55.2793-43.6058Q57.3626-47.4225 57.3626-52.1751Q57.3626-56.8301 55.2712-60.541Q53.1797-64.2519 49.7129-66.4085Q46.2461-68.5651 42.1445-68.5651Q38.0593-68.5651 34.5843-66.3841Q31.1094-64.2032 29.0179-60.4678Q26.9265-56.7324 26.9427-52.11Q26.9427-47.39 29.026-43.5895Q31.1094-39.789 34.5762-37.5593Q38.043-35.3295 42.1445-35.3295Z"/>
  </g>
  <g id="Thin-S" transform="matrix(1 0 0 1 814.561 696)">
   <path class="hierarchical-0:primary SFSymbolsPreview212121" d="M15.6309-0.479271L68.0439-0.479271Q70.6617-0.479271 72.1848-1.73857Q73.708-2.99786 73.708-5.06124Q73.708-8.73438 71.5186-12.7792Q69.3292-16.8241 65.1489-20.3562Q60.9685-23.8884 55.1005-26.1156Q49.2325-28.3428 41.8752-28.3428Q34.5179-28.3428 28.6176-26.1156Q22.7172-23.8884 18.5747-20.3562Q14.4322-16.8241 12.2239-12.7792Q10.0156-8.73438 10.0156-5.06124Q10.0156-2.99786 11.5522-1.73857Q13.0886-0.479271 15.6309-0.479271Z"/>
   <path class="hierarchical-1:secondary SFSymbolsPreview4D4D4D" d="M41.9508-35.1788Q46.128-35.1788 49.5113-37.387Q52.8946-39.5953 54.8919-43.3582Q56.8891-47.1212 56.8891-51.8307Q56.8891-56.3134 54.8729-59.9921Q52.8568-63.6707 49.4546-65.8703Q46.0523-68.07 41.9508-68.07Q37.8225-68.07 34.4013-65.8782Q30.9802-63.6865 28.9641-59.9835Q26.948-56.2803 26.9858-51.8087Q26.9858-47.1101 28.983-43.3527Q30.9802-39.5953 34.3824-37.387Q37.7846-35.1788 41.9508-35.1788Z"/>
  </g>
  <g id="Ultralight-S" transform="matrix(1 0 0 1 517.982 696)">
   <path class="hierarchical-0:primary SFSymbolsPreview212121" d="M15.2891-0.677734L68.1211-0.677734Q70.5625-0.677734 72.0029-1.89844Q73.4434-3.11914 73.4434-5.07227Q73.4434-8.73438 71.2705-12.7627Q69.0977-16.791 64.9229-20.3066Q60.748-23.8223 54.9131-26.0439Q49.0781-28.2656 41.7539-28.2656Q34.4297-28.2656 28.5459-26.0439Q22.6621-23.8223 18.5361-20.3066Q14.4102-16.791 12.2129-12.7627Q10.0156-8.73438 10.0156-5.07227Q10.0156-3.11914 11.4805-1.89844Q12.9453-0.677734 15.2891-0.677734Z"/>
   <path class="hierarchical-1:secondary SFSymbolsPreview4D4D4D" d="M41.8516-35.1016Q46.0508-35.1016 49.3955-37.2988Q52.7402-39.4961 54.6934-43.2314Q56.6465-46.9668 56.6465-51.6543Q56.6465-56.0488 54.6689-59.7109Q52.6914-63.373 49.3223-65.5947Q45.9531-67.8164 41.8516-67.8164Q37.7012-67.8164 34.3076-65.6191Q30.9141-63.4219 28.9365-59.7354Q26.959-56.0488 27.0078-51.6543Q27.0078-46.9668 28.9609-43.2314Q30.9141-39.4961 34.2832-37.2988Q37.6523-35.1016 41.8516-35.1016Z"/>
  </g>
 </g>
</svg>
